<?xml version="1.0" encoding="UTF-8"?>
<!DOCTYPE svg PUBLIC "-//W3C//DTD SVG 1.1//EN" "http://www.w3.org/Graphics/SVG/1.1/DTD/svg11.dtd">
<!-- Creator: CorelDRAW 2017 -->
<svg xmlns="http://www.w3.org/2000/svg" xml:space="preserve" width="37.0282mm" height="37.0282mm" version="1.1" style="shape-rendering:geometricPrecision; text-rendering:geometricPrecision; image-rendering:optimizeQuality; fill-rule:evenodd; clip-rule:evenodd"
viewBox="0 0 91.74 91.74"
 xmlns:xlink="http://www.w3.org/1999/xlink">
 <defs>
  <style type="text/css">
   <![CDATA[
    .str0 {stroke:#023449;stroke-width:4.2;stroke-miterlimit:22.9256}
    .fil2 {fill:none}
    .fil1 {fill:#FEFEFE}
    .fil0 {fill:#023449}
   ]]>
  </style>
   <clipPath id="id0">
    <path d="M45.87 2.1c24.18,0 43.77,19.6 43.77,43.77 0,24.18 -19.6,43.77 -43.77,43.77 -24.18,0 -43.77,-19.6 -43.77,-43.77 0,-24.18 19.6,-43.77 43.77,-43.77z"/>
   </clipPath>
 </defs>
 <g id="Слой_x0020_1">
  <metadata id="CorelCorpID_0Corel-Layer"/>
  <path class="fil0" d="M45.87 2.1c24.18,0 43.77,19.6 43.77,43.77 0,24.18 -19.6,43.77 -43.77,43.77 -24.18,0 -43.77,-19.6 -43.77,-43.77 0,-24.18 19.6,-43.77 43.77,-43.77z"/>
  <g style="clip-path:url(#id0)">
   <g id="_1730849300512">
    <path id="1" class="fil1" d="M58.6 48.31c1.16,-0.21 1.53,-0.05 1.96,-1.18 0.34,-0.91 0.99,-4.49 0.97,-5.46 -0.02,-1.33 -1.16,-1.35 -1.56,-1.66 0,-2.75 0.52,-5.61 -0.36,-8.15 -1.3,-3.75 -4.98,-7.51 -8.67,-8.9 -2.64,-0.99 -4.85,-0.81 -7.15,0.42 -1.9,1.02 -3.61,-0.04 -6.8,1.94 -1.71,1.06 -3.18,2.72 -4.15,4.69 -1.16,2.37 -1.66,6.76 -1.18,9.45 0.19,1.05 -0.33,0.5 -0.92,1.13 -0.79,0.83 -0.33,2.41 -0.13,3.63 0.88,5.33 1.29,3.48 2.45,4.11 0.61,0.34 0.87,3.75 3.81,7.21 0.39,0.46 0.64,0.71 1.03,1.15 0.5,0.55 0.3,0.71 0.2,1.63 -0.52,4.66 -0.36,4.08 -6.4,6.83 -5.62,2.55 -13.78,4.79 -15.98,10.42 -0.62,1.58 -0.52,6.27 -0.53,8.3 -0.02,3.51 -0.19,4.98 1.87,6.86 1.25,1.14 2.07,1.08 3.33,1.08l48.44 0c0.79,0 3.78,0.11 4.3,-0.09 0.87,-0.34 2.09,-1.3 2.55,-1.92 1.03,-1.4 0.81,-1.45 0.84,-3.53 0.02,-1.46 0.03,-2.91 0.04,-4.37 0.01,-2.98 0.21,-5.45 -1.13,-7.74 -2.67,-4.54 -10.99,-6.87 -16.65,-9.65 -0.97,-0.48 -1.96,-0.95 -2.89,-1.47 -1.32,-0.74 -1.61,-0.81 -1.9,-2.57 -0.71,-4.27 -0.49,-3.39 0.79,-4.91 1.37,-1.63 2.66,-3.3 3.33,-5.51 0.19,-0.61 0.29,-1.26 0.51,-1.75z"/>
   </g>
  </g>
  <path class="fil2 str0" d="M45.87 2.1c24.18,0 43.77,19.6 43.77,43.77 0,24.18 -19.6,43.77 -43.77,43.77 -24.18,0 -43.77,-19.6 -43.77,-43.77 0,-24.18 19.6,-43.77 43.77,-43.77z"/>
 </g>
</svg>
