<?xml version="1.0" encoding="UTF-8"?>
<!DOCTYPE svg PUBLIC "-//W3C//DTD SVG 1.1//EN" "http://www.w3.org/Graphics/SVG/1.1/DTD/svg11.dtd">
<!-- Creator: CorelDRAW 2017 -->
<svg xmlns="http://www.w3.org/2000/svg" xml:space="preserve" width="35.3348mm" height="35.3348mm" version="1.1" style="shape-rendering:geometricPrecision; text-rendering:geometricPrecision; image-rendering:optimizeQuality; fill-rule:evenodd; clip-rule:evenodd"
viewBox="0 0 87.05 87.05"
 xmlns:xlink="http://www.w3.org/1999/xlink">
 <defs>
  <style type="text/css">
   <![CDATA[
    .fil1 {fill:#FEFEFE}
    .fil0 {fill:#023449}
   ]]>
  </style>
 </defs>
 <g id="Слой_x0020_1">
  <metadata id="CorelCorpID_0Corel-Layer"/>
  <circle class="fil0" cx="43.52" cy="43.52" r="43.52"/>
  <path class="fil1" d="M43.98 29.4c-1.94,0 -3.74,0.21 -5.51,0.65 -1.22,0.3 -0.49,0.06 -2.58,-0.98 -1.7,-0.85 -2.85,-1.49 -5.01,-1.49 -0.42,0 -0.65,1.1 -0.75,1.45 -0.44,1.54 -0.49,3.97 0.25,5.37 -0.25,0.17 -0.47,0.43 -0.7,0.62 -3.74,3.83 -3.82,10.11 -0.06,14.33 0.38,0.42 0.81,0.8 1.24,1.18 0.43,0.38 0.94,0.69 1.43,0.99 2.11,1.27 4.49,1.9 6.93,2.26l0.34 0.1c-0.88,0.21 -1.68,1.04 -1.76,1.98 -0.58,0.05 -3.21,1.44 -5.28,-0.12 -0.77,-0.58 -1.16,-1.22 -1.69,-2 -1.58,-2.29 -4.35,-2.3 -4.43,-1.63 0.04,0.16 0.25,0.51 0.38,0.62l0.91 0.63c1.68,1.14 1.87,3.13 3.05,4.6 0.3,0.38 0.71,0.66 1.13,0.91 1.25,0.75 3.11,0.99 4.69,0.76 0.39,-0.06 0.75,-0.16 1.08,-0.19l0 4.4c-0,0.3 -0.06,0.33 -0.06,0.6 -0.23,-0.11 -0.63,-0.19 -0.89,-0.27 -5.24,-1.61 -9.25,-5.19 -12.24,-9.72 -0.63,-0.95 -1.1,-2.03 -1.54,-3.08 -1.79,-4.25 -2.07,-9.28 -0.96,-13.74 5.71,-22.85 37.59,-21.93 43.22,0.36 1.38,5.46 0.38,9.98 -1.77,14.95 -2.94,4.73 -4.44,7.03 -9.45,10.02 -0.69,0.37 -2.12,1.03 -2.85,1.2l-0.01 -2.41c-0.26,-1.72 0.07,-4.13 -0.66,-5.94 -0.72,-1.8 -2.02,-1.98 -1.36,-2.06 2.6,-0.31 5.08,-1.78 7.2,-3.22 5.28,-3.58 5.83,-10.2 1.98,-15.08 -1.26,-1.6 -0.91,-0.47 -0.91,-2.61 0,-1.82 -0.12,-3.43 -0.28,-5.23 -0.67,-0.16 -1.14,-0.1 -1.81,0.07 -1.54,0.38 -3.07,1.08 -4.39,1.88 -1.49,0.91 -0.39,0.67 -3.04,0.14 -1.08,-0.21 -2.57,-0.32 -3.86,-0.32zm-26.99 13.37c0,13.18 8.7,24.37 21.81,26.55 1.56,0.26 2.83,0.37 4.3,0.41 16.12,0.41 27.93,-12.84 26.89,-28.64 -1.64,-16.37 -14.16,-24.32 -26.74,-24.36 -13.55,-0.04 -25.34,9.94 -26.26,26.03z"/>
 </g>
</svg>
