<?xml version="1.0" ?><svg data-name="Layer 2" height="100" id="Layer_2" viewBox="0 0 100 100" width="100" xmlns="http://www.w3.org/2000/svg"><title/><path fill="#023449" d="M86,77a3,3,0,0,1-2.12-.88L74.76,67H36a3,3,0,0,1,0-6H76a3,3,0,0,1,2.12.88L83,66.76V36a3,3,0,0,1,6,0V74a3,3,0,0,1-1.85,2.77A2.88,2.88,0,0,1,86,77Z" /><path d="M68,13H20a9,9,0,0,0-9,9V62a3,3,0,0,0,1.85,2.77A2.88,2.88,0,0,0,14,65a3,3,0,0,0,2.12-.88L25.24,55H68a9,9,0,0,0,9-9V22A9,9,0,0,0,68,13ZM62,44H26a3,3,0,0,1,0-6H62a3,3,0,0,1,0,6Zm0-14H26a3,3,0,0,1,0-6H62a3,3,0,0,1,0,6Z" fill="#023449" /></svg>