<?xml version="1.0" encoding="UTF-8"?>
<!DOCTYPE svg PUBLIC "-//W3C//DTD SVG 1.1//EN" "http://www.w3.org/Graphics/SVG/1.1/DTD/svg11.dtd">
<!-- Creator: CorelDRAW 2017 -->
<svg xmlns="http://www.w3.org/2000/svg" xml:space="preserve" width="35.3348mm" height="35.3348mm" version="1.1" style="shape-rendering:geometricPrecision; text-rendering:geometricPrecision; image-rendering:optimizeQuality; fill-rule:evenodd; clip-rule:evenodd"
viewBox="0 0 89.69 89.69"
 xmlns:xlink="http://www.w3.org/1999/xlink">
 <defs>
  <style type="text/css">
   <![CDATA[
    .fil1 {fill:#FEFEFE}
    .fil0 {fill:#023449}
   ]]>
  </style>
 </defs>
 <g id="Слой_x0020_1">
  <metadata id="CorelCorpID_0Corel-Layer"/>
  <circle class="fil0" cx="44.84" cy="44.84" r="44.84"/>
  <g id="_1694736313600">
   <path class="fil1" d="M42.49 26.02l6.17 0c1.75,0 2.84,0.33 3.85,1.52 0.38,0.44 0.39,0.67 0.62,1.17l-15.12 0c0.37,-0.78 0.56,-1.39 1.57,-2.01 0.84,-0.52 1.59,-0.67 2.91,-0.67zm-8.46 2.69c-2.92,0 -5.84,0 -8.75,0 -2.12,-0 -3.58,0.34 -4.57,1.99 -0.25,0.41 -0.6,1.06 -0.6,1.69l0 10.05c0,0.96 0.4,1.66 0.86,2.22 1.8,2.22 4.49,1.56 7.79,1.56 4.14,0 8.29,0 12.44,0 0.06,-0.76 0.38,-1.8 0.82,-2.36 1.31,-1.67 3.43,-2.34 5.28,-1.46 1.58,0.76 2.5,1.96 2.65,3.82 4.15,0 8.29,0 12.44,0 3.16,0 6.05,0.65 7.75,-1.5 0.5,-0.63 0.91,-1.37 0.91,-2.28l0 -10.05c0,-0.99 -0.86,-2.26 -1.59,-2.79 -1.04,-0.74 -1.72,-0.89 -3.48,-0.89 -2.95,0 -5.9,0 -8.85,0 -0.51,-2.17 -1.05,-3.1 -2.41,-4.45 -0.97,-0.96 -2.95,-2.01 -4.85,-2.01l-8.56 0c-1.9,0 -3.88,1.05 -4.85,2.01 -1.37,1.35 -1.9,2.28 -2.41,4.45z"/>
   <path class="fil1" d="M24.78 64.03l41.58 0c1.08,0 2.39,-0.89 2.98,-1.79 0.79,-1.21 0.7,-2.14 0.7,-4.08 0,-3.22 0,-6.43 0,-9.65 -1.28,0.68 -2.53,0.7 -4.48,0.7 -5.27,0 -10.55,0 -15.82,0 -0.6,2.58 -4.22,4.32 -6.88,2.21 -0.6,-0.48 -1.28,-1.36 -1.48,-2.21l-15.72 0c-2.1,0 -3.14,-0.01 -4.58,-0.7 0,3.18 0,6.37 0,9.55 0,2.29 -0.16,3.94 1.85,5.32 0.38,0.27 1.25,0.65 1.83,0.65z"/>
   <path class="fil1" d="M43.09 46.52l0 1.59c0,1.21 1.26,2.29 2.49,2.29 1.23,0 2.49,-1.08 2.49,-2.29l0 -1.59c0,-1.23 -1.08,-2.29 -2.69,-2.29 -1.13,0 -2.29,1.15 -2.29,2.29z"/>
  </g>
 </g>
</svg>
