<?xml version="1.0" encoding="UTF-8"?>
<!DOCTYPE svg PUBLIC "-//W3C//DTD SVG 1.1//EN" "http://www.w3.org/Graphics/SVG/1.1/DTD/svg11.dtd">
<!-- Creator: CorelDRAW 2017 -->
<svg xmlns="http://www.w3.org/2000/svg" xml:space="preserve" width="35.3348mm" height="35.3348mm" version="1.1" style="shape-rendering:geometricPrecision; text-rendering:geometricPrecision; image-rendering:optimizeQuality; fill-rule:evenodd; clip-rule:evenodd"
viewBox="0 0 89.69 89.69"
 xmlns:xlink="http://www.w3.org/1999/xlink">
 <defs>
  <style type="text/css">
   <![CDATA[
    .fil1 {fill:#FEFEFE}
    .fil0 {fill:#023449}
   ]]>
  </style>
 </defs>
 <g id="Слой_x0020_1">
  <metadata id="CorelCorpID_0Corel-Layer"/>
  <circle class="fil0" cx="44.84" cy="44.84" r="44.84"/>
  <g id="_1694736362176">
   <path class="fil1" d="M35.8 35.42c0.43,-2.48 1.13,-4.82 2.45,-6.44 1.18,-1.45 3.14,-2.83 5.87,-3.02 3.06,-0.21 5.05,0.66 6.77,2.11 2.61,2.19 3.97,6.05 2.04,9.46 -0.48,0.85 -1.44,1.86 -2.01,2.43 -0.73,0.73 -1.54,1.4 -2.33,2.12l-2.28 2.16c-1.51,1.5 -2.86,3.05 -3.67,5.22 -0.97,2.6 -1.03,4.88 -0.94,7.9l5.98 -0.02c-0,-1.66 0.1,-3.9 0.53,-5.35 0.23,-0.77 0.52,-1.44 0.92,-2.04 0.57,-0.86 2.1,-2.46 2.81,-3.04l3.04 -2.82c1.51,-1.58 1.49,-1.45 2.78,-3.07 3.39,-4.25 3.17,-11.13 -0.44,-15.13 -0.93,-1.03 -1.81,-1.9 -3.13,-2.73 -4.02,-2.55 -10.04,-3.05 -14.55,-1.73 -4.39,1.28 -7.52,4.19 -9.1,8.47 -0.23,0.62 -1.31,4.21 -0.97,4.69 0.2,0.3 1.1,0.27 1.5,0.31 0.84,0.1 4.42,0.58 4.73,0.52z"/>
   <path class="fil1" d="M48.34 62.13c-0.35,-0.24 -0.19,-0.2 -0.78,-0.19l-4.78 0c-1.07,0 -1.42,-0.15 -1.42,0.45l0 6.13c0,0.34 0.05,0.15 0.16,0.39 0.5,0.11 4.21,0.04 5.23,0.04 0.66,0 1.21,0.09 1.58,-0.13l0.01 -6.68z"/>
  </g>
 </g>
</svg>
