<?xml version="1.0" encoding="UTF-8"?>
<!DOCTYPE svg PUBLIC "-//W3C//DTD SVG 1.1//EN" "http://www.w3.org/Graphics/SVG/1.1/DTD/svg11.dtd">
<!-- Creator: CorelDRAW 2017 -->
<svg xmlns="http://www.w3.org/2000/svg" xml:space="preserve" width="35.3348mm" height="35.3348mm" version="1.1" style="shape-rendering:geometricPrecision; text-rendering:geometricPrecision; image-rendering:optimizeQuality; fill-rule:evenodd; clip-rule:evenodd"
viewBox="0 0 77.39 77.39"
 xmlns:xlink="http://www.w3.org/1999/xlink">
 <defs>
  <style type="text/css">
   <![CDATA[
    .fil1 {fill:#FEFEFE}
    .fil0 {fill:#023449}
   ]]>
  </style>
 </defs>
 <g id="Слой_x0020_1">
  <metadata id="CorelCorpID_0Corel-Layer"/>
  <circle class="fil0" cx="38.7" cy="38.7" r="38.7"/>
  <path class="fil1" d="M30.31 50.6c-0.1,-0.43 -0.21,-0.75 -0.35,-1.16l-1.81 -5.79c-0.15,-0.54 -0.69,-1.99 -0.69,-2.4 0,-0.75 0.48,-0.91 0.97,-1.2l2.01 -1.24c4.24,-2.52 8.66,-5.4 12.92,-7.95l2.74 -1.69c0.47,-0.3 2.49,-1.6 2.91,-1.6 0.23,0 0.33,0.22 0.33,0.42 0,0.35 -3.7,3.41 -4.03,3.74 -0.25,0.25 -0.41,0.33 -0.67,0.58l-5.9 5.21c-0.17,0.13 -0.2,0.13 -0.37,0.3 -0.12,0.11 -0.17,0.19 -0.29,0.29 -0.17,0.15 -0.21,0.15 -0.37,0.29l-5.89 5.22c-0.71,0.68 -0.53,0.45 -0.76,2.5l-0.38 3.54c-0.08,0.57 0.09,0.83 -0.38,0.95zm-15.2 -13.11c0,1.22 1.41,1.43 2.32,1.69 2.45,0.69 5.49,1.68 7.89,2.3 0.69,0.18 0.43,0.03 0.82,1.26 0.28,0.89 3.08,10.24 3.41,10.78 0.4,0.64 1.51,1.05 2.39,0.39 0.55,-0.41 4.52,-4.77 5.21,-5.23l9.28 6.84c1.18,0.89 2.48,0.99 3.33,-0.23 0.3,-0.43 0.45,-1.39 0.57,-2.02 1.42,-7.14 3.06,-14.32 4.48,-21.49l1.35 -6.42c0.09,-0.41 0.14,-0.69 0.22,-1.11 0.06,-0.28 0.22,-0.9 0.22,-1.12 0,-0.94 -0.87,-1.92 -2.09,-1.92 -0.48,0 -4.29,1.6 -5.05,1.89l-32.51 12.75c-0.76,0.3 -1.86,0.49 -1.86,1.65z"/>
 </g>
</svg>
