<?xml version="1.0" encoding="UTF-8"?>
<!DOCTYPE svg PUBLIC "-//W3C//DTD SVG 1.1//EN" "http://www.w3.org/Graphics/SVG/1.1/DTD/svg11.dtd">
<!-- Creator: CorelDRAW 2017 -->
<svg xmlns="http://www.w3.org/2000/svg" xml:space="preserve" width="35.3348mm" height="35.3348mm" version="1.1" style="shape-rendering:geometricPrecision; text-rendering:geometricPrecision; image-rendering:optimizeQuality; fill-rule:evenodd; clip-rule:evenodd"
viewBox="0 0 81.93 81.93"
 xmlns:xlink="http://www.w3.org/1999/xlink">
 <defs>
  <style type="text/css">
   <![CDATA[
    .fil1 {fill:#FEFEFE}
    .fil0 {fill:#023449}
   ]]>
  </style>
 </defs>
 <g id="Слой_x0020_1">
  <metadata id="CorelCorpID_0Corel-Layer"/>
  <circle class="fil0" cx="40.97" cy="40.97" r="40.97"/>
  <g id="_1694736336192">
   <path class="fil1" d="M18.2 30.87c-1.35,3.77 -1.39,15.28 0.11,19.48 1.3,3.65 5.62,7.81 9.09,9.29 0.16,0.07 0.21,0.09 0.37,0.19l0.36 1.16 -0.07 4.32 -0 2.08 0.04 2.2c0.26,0.29 0.33,0.31 0.83,0.28 0.95,-0.84 2.28,-2.56 3.19,-3.59 1.34,-1.35 2.78,-3.19 4.08,-4.65 0.31,-0.13 5.97,-0.09 6.78,-0.07 6.08,-0.08 13.75,-2.35 17.4,-7.67 3.69,-5.37 3.84,-13.89 2.74,-20.13 -3.3,-18.26 -39.64,-18.88 -44.92,-2.9z"/>
   <path class="fil0" d="M46.59 27.61c3.33,1.67 5.36,3.85 6.75,7.29 0.43,1.08 1.33,5.07 0.23,5.78 -2.74,1.75 -0.67,-4.77 -4.74,-8.85 -3.67,-3.68 -8.16,-2.3 -8.52,-3.84 -0.26,-1.1 0.51,-1.23 0.52,-1.24 1.19,-0.73 4.69,0.31 5.78,0.86z"/>
   <path class="fil0" d="M41.28 30.25c1.58,-0.71 7.45,1.27 8.72,5.97 0.28,1.05 0.81,3.44 -0.35,3.86 -1.74,0.63 -1.52,-1.66 -1.84,-2.93 -1.39,-5.35 -6.33,-3.99 -7.02,-5.33 -0.3,-0.59 -0.03,-1.33 0.49,-1.57z"/>
   <path class="fil0" d="M26.48 33.31c-0.18,-2.37 1.1,-3.73 2.57,-4.65 2.54,-1.6 3.77,-0.35 5.02,1 0.86,0.92 2.39,2.95 2.94,4.37 1.09,2.84 -1.84,2.96 -2.19,4.55 -0.52,2.38 3.76,6.81 6.7,7.74 2.42,0.76 1.7,-2.53 4.95,-2.24 1.33,0.12 3.75,2.08 4.58,2.73 1.37,1.08 2.97,2.03 1.66,4.65 -0.68,1.34 -2.21,2.79 -4.02,3.27 -2.47,0.65 -8.11,-3.05 -10.03,-4.41 -2.42,-1.72 -5.62,-4.75 -7.36,-7.26 -1.25,-1.81 -4.6,-6.89 -4.82,-9.73z"/>
   <path class="fil0" d="M41.92 34c3.24,-1.09 6.47,4.96 4.04,5.68 -1.79,0.53 -1.05,-2.18 -2.56,-3.16 -0.8,-0.52 -2.69,-0.29 -2.25,-1.8 0.15,-0.51 0.28,-0.56 0.78,-0.72z"/>
  </g>
 </g>
</svg>
