<?xml version="1.0" encoding="UTF-8"?>
<!DOCTYPE svg PUBLIC "-//W3C//DTD SVG 1.1//EN" "http://www.w3.org/Graphics/SVG/1.1/DTD/svg11.dtd">
<!-- Creator: CorelDRAW 2017 -->
<svg xmlns="http://www.w3.org/2000/svg" xml:space="preserve" width="35.3348mm" height="35.3348mm" version="1.1" style="shape-rendering:geometricPrecision; text-rendering:geometricPrecision; image-rendering:optimizeQuality; fill-rule:evenodd; clip-rule:evenodd"
viewBox="0 0 77.39 77.39"
 xmlns:xlink="http://www.w3.org/1999/xlink">
 <defs>
  <style type="text/css">
   <![CDATA[
    .fil1 {fill:#FEFEFE}
    .fil0 {fill:#023449}
   ]]>
  </style>
 </defs>
 <g id="Слой_x0020_1">
  <metadata id="CorelCorpID_0Corel-Layer"/>
  <circle class="fil0" cx="38.7" cy="38.7" r="38.7"/>
  <path class="fil1" d="M14.05 38.17c0,-6.64 2.65,-13.2 7.28,-17.83 1.08,-1.08 2.08,-2.05 3.32,-2.93 0.6,-0.42 1.25,-0.85 1.89,-1.23 1.65,-0.98 2.41,-1.33 4.21,-2.04 5.97,-2.35 14.08,-1.95 19.64,0.85 4.05,2.04 7.51,4.65 10.06,8.47l1.23 1.89c5.22,8.61 4.2,20.15 -1.78,28.09 -1.71,2.27 -4.06,4.47 -6.48,6.02 -0.51,0.33 -1.07,0.67 -1.61,0.95 -3.64,1.85 -5.35,2.42 -9.6,3.01 -0.65,0.09 -1.75,0.08 -2.41,0.16 -0.18,0.02 -1.91,-0.06 -2.3,-0.09 -4.25,-0.34 -7.83,-1.67 -11.39,-3.79 -0.62,-0.37 -1.25,-0.07 -1.98,0.14l-8.06 2.1c0.24,-1.03 0.54,-1.96 0.8,-2.99l1.24 -4.56c0.77,-2.65 0.55,-1.29 -0.82,-3.95 -0.22,-0.43 -0.46,-0.76 -0.67,-1.23 -0.2,-0.45 -0.39,-0.86 -0.58,-1.32 -1.22,-3.05 -1.99,-6.29 -1.99,-9.73zm5.17 -0.19c0,-20.36 26.72,-28.31 38.23,-10.59 9.29,17.97 -9.39,39.62 -28.96,28.01 -0.1,-0.13 -5.87,0.97 -7.02,1.27 0.17,-0.74 1.63,-6.4 1.55,-6.59 -0.14,-0.36 -1.6,-2.69 -2.17,-4.13 -1,-2.5 -1.63,-5.16 -1.63,-7.97zm-10.63 31.33l0 0z"/>
  <path class="fil1" d="M27.93 31.65c0,2.48 0.52,3.83 1.81,5.81 0.86,1.33 1.89,2.58 2.91,3.79 0.68,0.82 2.59,2.57 3.47,3.23 1.26,0.94 2.7,1.9 4.2,2.5 3.2,1.28 5.87,2.42 9.04,0.31 0.45,-0.3 0.55,-0.39 0.92,-0.76 0.63,-0.62 0.91,-1.45 1.01,-2.34 0.21,-1.84 0.08,-1.4 -3.36,-3.14 -2.33,-1.18 -2.47,-1.22 -3.2,-0.24l-1.35 1.66c-0.75,0.81 -0.62,0.92 -2.39,0.09l-1.34 -0.67c-1.67,-0.92 -3.02,-2.27 -4.22,-3.73 -0.37,-0.45 -1.53,-1.98 -1.53,-2.58 0,-0.23 0.8,-1.06 1.06,-1.37 1.47,-1.74 0.82,-1.87 -0.34,-4.79 -1.23,-3.09 -0.97,-2.71 -3.23,-2.71 -1.62,0 -3.43,3.01 -3.43,4.94z"/>
 </g>
</svg>
