<?xml version="1.0" encoding="UTF-8"?>
<!DOCTYPE svg PUBLIC "-//W3C//DTD SVG 1.1//EN" "http://www.w3.org/Graphics/SVG/1.1/DTD/svg11.dtd">
<!-- Creator: CorelDRAW 2017 -->
<svg xmlns="http://www.w3.org/2000/svg" xml:space="preserve" width="30.9297mm" height="22.0385mm" version="1.1" style="shape-rendering:geometricPrecision; text-rendering:geometricPrecision; image-rendering:optimizeQuality; fill-rule:evenodd; clip-rule:evenodd"
viewBox="0 0 66.8 47.6"
 xmlns:xlink="http://www.w3.org/1999/xlink">
 <defs>
  <style type="text/css">
   <![CDATA[
    .str0 {stroke:#03B2FC;stroke-width:0.89;stroke-linecap:round;stroke-linejoin:round;stroke-miterlimit:22.9256}
    .str1 {stroke:#03B2FC;stroke-width:0.89;stroke-linecap:round;stroke-linejoin:round;stroke-miterlimit:22.9256}
    .fil0 {fill:#03B2FC}
   ]]>
  </style>
 </defs>
 <g id="Слой_x0020_1">
  <metadata id="CorelCorpID_0Corel-Layer"/>
  <g id="_1695176997456">
   <g>
    <path class="fil0 str0" d="M0.45 4.61l0 31.8c0,1.64 1.02,3.09 2.38,3.65 0.41,0.17 1.09,0.41 1.62,0.41l15.08 0 0 4.44 -4.22 0 0 2.25 17 0 0 -2.25 -4.22 0 0 -4.44 6.36 0 0 -2.08c0,-0.26 -0.43,-0.16 -0.88,-0.16l-24.62 0c-1.42,0 -2.86,0.01 -4.28,0 -1.2,-0.01 -2.08,-0.93 -2.08,-2.25l0 -4.39 31.85 0 0 -2.25 -31.85 0 0 -24.45c0,-1.32 0.95,-2.19 2.19,-2.19l37.94 0c1.65,0 2.3,1.04 2.3,2.69l0 5.7 2.14 0 0 -6.19c0,-1.91 -0.89,-3.39 -2.43,-4.03 -0.48,-0.2 -1.14,-0.41 -1.79,-0.41l-38.21 0c-1.27,0 -2.36,0.57 -3.06,1.17 -0.12,0.1 -0.13,0.15 -0.23,0.27 -0.64,0.79 -0.99,1.6 -0.99,2.73z"/>
    <path class="fil0 str0" d="M48.25 46.06c-0.37,0 -0.54,-0.06 -0.8,-0.3 -0.6,-0.56 -0.28,-1.79 0.74,-1.79 0.88,0 1.48,1.15 0.65,1.86 -0.07,0.06 -0.08,0.07 -0.16,0.12 -0.11,0.06 -0.25,0.11 -0.44,0.11zm-11.73 -30.87l0 29.99c0,0.98 0.98,1.97 2.03,1.97l12.83 0 0 -4.28 -12.72 0 0 -26.48 19.08 0 0 7.4 2.14 0 0 -8.61c0,-1.12 -1.02,-2.03 -2.19,-2.03l-18.97 0c-0.87,0 -1.62,0.46 -1.97,1.15 -0.1,0.18 -0.22,0.6 -0.22,0.88z"/>
    <path class="fil0 str0" d="M22.7 34.93c0,0.56 0.4,1.1 1.15,1.1 0.5,0 0.99,-0.49 0.99,-0.99 0,-0.4 -0,-0.68 -0.34,-0.97 -0.84,-0.72 -1.8,0.03 -1.8,0.86z"/>
   </g>
   <path class="fil0 str1" d="M54.19 25.73l11.37 0c0.44,0 0.8,0.36 0.8,0.8l0 19.83c0,0.44 -0.36,0.8 -0.8,0.8l-11.37 0c-0.44,0 -0.8,-0.36 -0.8,-0.8l0 -19.83c0,-0.44 0.36,-0.8 0.8,-0.8zm5.74 17.93c0.61,0 1.1,0.49 1.1,1.1 0,0.61 -0.49,1.1 -1.1,1.1 -0.61,0 -1.1,-0.49 -1.1,-1.1 0,-0.61 0.49,-1.1 1.1,-1.1zm-4.47 -15.86l8.77 0 0 14.88 -8.77 0 0 -14.88z"/>
  </g>
 </g>
</svg>
