<?xml version="1.0" encoding="UTF-8"?>
<!DOCTYPE svg PUBLIC "-//W3C//DTD SVG 1.1//EN" "http://www.w3.org/Graphics/SVG/1.1/DTD/svg11.dtd">
<!-- Creator: CorelDRAW 2017 -->
<svg xmlns="http://www.w3.org/2000/svg" xml:space="preserve" width="25.1989mm" height="21.9274mm" version="1.1" style="shape-rendering:geometricPrecision; text-rendering:geometricPrecision; image-rendering:optimizeQuality; fill-rule:evenodd; clip-rule:evenodd"
viewBox="0 0 46.96 40.86"
 xmlns:xlink="http://www.w3.org/1999/xlink">
 <defs>
  <style type="text/css">
   <![CDATA[
    .fil0 {fill:#03B2FC}
   ]]>
  </style>
 </defs>
 <g id="Слой_x0020_1">
  <metadata id="CorelCorpID_0Corel-Layer"/>
  <g id="_1694608109552">
   <path class="fil0" d="M3.25 0l40.7 0c1.65,0 3.01,1.35 3.01,3.01l0 26.95c0,1.65 -1.36,3.01 -3.01,3.01l-40.8 0c-1.65,0 -3.15,-1.23 -3.15,-2.88l0 -27.28c0,-1.66 1.59,-2.8 3.25,-2.8zm2.24 2.87l36.19 0c1.36,0 2.47,1.11 2.47,2.47l0 22.14c0,1.36 -1.11,2.47 -2.47,2.47l-36.19 0c-1.36,0 -2.47,-1.11 -2.47,-2.47l0 -22.14c0,-1.36 1.11,-2.47 2.47,-2.47z"/>
   <polygon class="fil0" points="15.59,38.03 31.75,38.03 31.75,40.86 15.59,40.86 "/>
   <polygon class="fil0" points="19.7,32.45 27.97,32.45 27.97,38.03 19.7,38.03 "/>
   <path class="fil0" d="M16.68 11.08c1.61,-0.19 2.88,1.06 3.03,2.45 0.18,1.61 -1.03,2.89 -2.45,3.04 -1.61,0.17 -2.89,-1.04 -3.04,-2.45 -0.16,-1.51 0.91,-2.85 2.46,-3.04zm-7.99 1.45l0 2.55c0.1,0.16 0.07,0.27 0.41,0.32l1.87 0.28c0.08,0.25 0.18,0.55 0.3,0.78 0.18,0.37 0.2,0.21 -0.15,0.68 -0.17,0.23 -0.9,1.08 -0.92,1.29 -0.04,0.31 0.39,0.7 0.57,0.89 0.28,0.3 0.81,0.81 1.13,1.08 0.11,0.09 0.25,0.28 0.48,0.24 0.15,-0.02 0.35,-0.21 0.45,-0.28l1.26 -0.95 0.72 0.3c0.08,0.03 0.2,0.05 0.25,0.1 0.04,0.05 0.26,1.59 0.29,1.81 0.06,0.4 0.15,0.48 0.56,0.48l2.1 0c0.42,0 0.49,-0.12 0.57,-0.48 0.07,-0.29 0.12,-0.58 0.16,-0.89 0.02,-0.15 0.08,-0.84 0.12,-0.93 0.07,-0.05 0.38,-0.15 0.49,-0.19 0.14,-0.06 0.35,-0.18 0.48,-0.22l0.73 0.56c0.24,0.18 0.48,0.39 0.72,0.57 0.33,0.24 0.51,0.08 0.84,-0.2 0.28,-0.23 1.05,-1 1.3,-1.3 0.17,-0.21 0.53,-0.47 0.23,-0.83 -0.33,-0.4 -0.86,-1.04 -1.13,-1.46 0.02,-0.11 0.17,-0.35 0.22,-0.48 0.07,-0.17 0.13,-0.34 0.19,-0.51 0.29,-0.06 0.6,-0.09 0.89,-0.14 0.3,-0.05 0.61,-0.1 0.91,-0.14 0.37,-0.05 0.5,-0.15 0.5,-0.56l0 -2.08c0,-0.41 -0.08,-0.52 -0.47,-0.58 -0.3,-0.05 -0.61,-0.09 -0.92,-0.14l-0.68 -0.1c-0.04,-0.01 -0.06,-0.01 -0.11,-0.02 -0.2,-0.03 -0.12,-0.1 -0.34,-0.62 -0.16,-0.36 -0.26,-0.42 -0.16,-0.55 0.29,-0.38 0.82,-1.04 1.06,-1.39 0.17,-0.25 0.08,-0.41 -0.06,-0.59 -0.25,-0.32 -0.51,-0.61 -0.79,-0.87 -0.2,-0.19 -0.64,-0.62 -0.84,-0.8 -0.13,-0.11 -0.33,-0.27 -0.56,-0.1l-0.47 0.36c-0.32,0.23 -0.61,0.47 -0.93,0.7 -0.22,0.16 -0.1,0.13 -0.54,-0.06l-0.59 -0.24c-0.03,-0.04 -0.26,-1.63 -0.3,-1.91 -0.05,-0.32 -0.19,-0.31 -0.34,-0.38l-2.53 0c-0.1,0.06 -0.14,0.06 -0.23,0.15 -0.11,0.13 -0.2,0.69 -0.23,0.88 -0.07,0.43 -0.09,0.87 -0.17,1.29 -0.17,0.06 -0.34,0.12 -0.51,0.19 -0.14,0.06 -0.35,0.18 -0.48,0.21l-1.1 -0.85c-0.3,-0.24 -0.54,-0.51 -0.83,-0.34 -0.32,0.19 -0.78,0.64 -1.03,0.9l-0.63 0.68c-0.18,0.23 -0.49,0.46 -0.2,0.82 0.2,0.25 0.97,1.19 1.13,1.46 -0.03,0.1 -0.27,0.53 -0.41,0.99 -0.41,0.08 -0.84,0.13 -1.26,0.19 -0.21,0.03 -0.43,0.07 -0.63,0.1 -0.3,0.04 -0.27,0.11 -0.4,0.33z"/>
   <path class="fil0" d="M28.52 20.39c0.82,-0.42 1.75,-0 2.11,0.71 0.41,0.83 0.02,1.75 -0.71,2.11 -0.83,0.41 -1.76,0.01 -2.11,-0.71 -0.38,-0.78 -0.08,-1.71 0.72,-2.11zm-3.99 2.35l0.5 1.37c0.09,0.06 0.09,0.13 0.28,0.09l1.06 -0.22c0.09,0.12 0.21,0.26 0.32,0.36 0.17,0.16 0.15,0.07 0.05,0.39 -0.05,0.16 -0.27,0.75 -0.24,0.87 0.04,0.17 0.35,0.29 0.48,0.37 0.21,0.11 0.6,0.27 0.82,0.36 0.08,0.03 0.19,0.1 0.31,0.04 0.08,-0.04 0.15,-0.18 0.19,-0.24l0.49 -0.76 0.44 0.02c0.05,-0 0.12,-0.01 0.15,0.01 0.03,0.02 0.45,0.8 0.51,0.91 0.11,0.2 0.18,0.23 0.4,0.15l1.12 -0.41c0.22,-0.08 0.24,-0.16 0.21,-0.37 -0.02,-0.17 -0.05,-0.34 -0.09,-0.51 -0.02,-0.09 -0.13,-0.47 -0.12,-0.52 0.03,-0.04 0.18,-0.15 0.23,-0.2 0.07,-0.06 0.15,-0.17 0.22,-0.21l0.5 0.16c0.16,0.05 0.33,0.11 0.5,0.16 0.22,0.06 0.29,-0.06 0.41,-0.27 0.11,-0.18 0.37,-0.74 0.44,-0.95 0.05,-0.15 0.19,-0.36 -0.04,-0.49 -0.25,-0.15 -0.67,-0.39 -0.9,-0.56 -0.01,-0.06 0.02,-0.22 0.02,-0.3 0,-0.1 0.01,-0.21 0,-0.31 0.14,-0.09 0.3,-0.17 0.45,-0.25 0.15,-0.08 0.31,-0.17 0.46,-0.25 0.19,-0.1 0.24,-0.18 0.16,-0.4l-0.41 -1.12c-0.08,-0.22 -0.15,-0.26 -0.36,-0.22 -0.17,0.04 -0.35,0.07 -0.52,0.11l-0.38 0.08c-0.02,0 -0.04,0.01 -0.06,0.01 -0.12,0.02 -0.08,-0.03 -0.3,-0.26 -0.15,-0.16 -0.22,-0.17 -0.19,-0.26 0.08,-0.26 0.24,-0.72 0.3,-0.95 0.04,-0.17 -0.04,-0.24 -0.15,-0.3 -0.2,-0.12 -0.39,-0.23 -0.59,-0.31 -0.15,-0.06 -0.47,-0.21 -0.61,-0.26 -0.09,-0.03 -0.23,-0.08 -0.32,0.06l-0.18 0.28c-0.13,0.19 -0.24,0.37 -0.36,0.56 -0.09,0.13 -0.03,0.09 -0.3,0.08l-0.36 -0.01c-0.02,-0.01 -0.46,-0.82 -0.54,-0.96 -0.09,-0.16 -0.16,-0.13 -0.26,-0.14l-1.35 0.5c-0.04,0.05 -0.07,0.06 -0.09,0.12 -0.04,0.09 0.03,0.41 0.05,0.51 0.05,0.24 0.12,0.48 0.17,0.72 -0.08,0.06 -0.16,0.13 -0.24,0.2 -0.06,0.06 -0.15,0.16 -0.21,0.21l-0.76 -0.24c-0.21,-0.07 -0.39,-0.17 -0.51,-0.02 -0.13,0.16 -0.29,0.5 -0.38,0.69l-0.2 0.49c-0.05,0.16 -0.17,0.34 0.05,0.48 0.16,0.09 0.75,0.44 0.89,0.56 0,0.06 -0.04,0.34 -0.03,0.61 -0.21,0.12 -0.43,0.24 -0.64,0.35 -0.11,0.06 -0.22,0.12 -0.32,0.18 -0.15,0.08 -0.12,0.12 -0.15,0.25z"/>
   <path class="fil0" d="M30.89 11.38c0.61,-0.07 1.1,0.4 1.16,0.93 0.07,0.61 -0.39,1.1 -0.93,1.16 -0.61,0.07 -1.1,-0.4 -1.16,-0.93 -0.06,-0.57 0.35,-1.09 0.94,-1.16zm-3.04 0.55l0 0.97c0.04,0.06 0.03,0.1 0.15,0.12l0.71 0.11c0.03,0.1 0.07,0.21 0.11,0.3 0.07,0.14 0.08,0.08 -0.06,0.26 -0.07,0.09 -0.34,0.41 -0.35,0.49 -0.01,0.12 0.15,0.26 0.22,0.34 0.1,0.11 0.31,0.31 0.43,0.41 0.04,0.04 0.1,0.11 0.18,0.09 0.06,-0.01 0.13,-0.08 0.17,-0.11l0.48 -0.36 0.27 0.11c0.03,0.01 0.08,0.02 0.09,0.04 0.02,0.02 0.1,0.61 0.11,0.69 0.02,0.15 0.06,0.18 0.22,0.18l0.8 0c0.16,0 0.19,-0.05 0.22,-0.18 0.02,-0.11 0.04,-0.22 0.06,-0.34 0.01,-0.06 0.03,-0.32 0.05,-0.35 0.03,-0.02 0.15,-0.06 0.19,-0.07 0.05,-0.02 0.14,-0.07 0.18,-0.08l0.28 0.22c0.09,0.07 0.18,0.15 0.28,0.22 0.12,0.09 0.19,0.03 0.32,-0.08 0.11,-0.09 0.4,-0.38 0.49,-0.5 0.06,-0.08 0.2,-0.18 0.09,-0.32 -0.12,-0.15 -0.33,-0.4 -0.43,-0.56 0.01,-0.04 0.06,-0.13 0.08,-0.18 0.03,-0.06 0.05,-0.13 0.07,-0.19 0.11,-0.02 0.23,-0.04 0.34,-0.05 0.11,-0.02 0.23,-0.04 0.35,-0.05 0.14,-0.02 0.19,-0.06 0.19,-0.21l0 -0.79c0,-0.16 -0.03,-0.2 -0.18,-0.22 -0.12,-0.02 -0.23,-0.04 -0.35,-0.05l-0.26 -0.04c-0.02,-0 -0.02,-0 -0.04,-0.01 -0.08,-0.01 -0.04,-0.04 -0.13,-0.23 -0.06,-0.14 -0.1,-0.16 -0.06,-0.21 0.11,-0.14 0.31,-0.39 0.4,-0.53 0.07,-0.1 0.03,-0.16 -0.02,-0.22 -0.1,-0.12 -0.19,-0.23 -0.3,-0.33 -0.08,-0.07 -0.24,-0.24 -0.32,-0.3 -0.05,-0.04 -0.12,-0.1 -0.21,-0.04l-0.18 0.14c-0.12,0.09 -0.23,0.18 -0.36,0.27 -0.08,0.06 -0.04,0.05 -0.2,-0.02l-0.23 -0.09c-0.01,-0.01 -0.1,-0.62 -0.11,-0.73 -0.02,-0.12 -0.07,-0.12 -0.13,-0.15l-0.96 0c-0.04,0.02 -0.06,0.02 -0.09,0.06 -0.04,0.05 -0.08,0.26 -0.09,0.33 -0.03,0.16 -0.03,0.33 -0.06,0.49 -0.06,0.02 -0.13,0.04 -0.19,0.07 -0.05,0.02 -0.13,0.07 -0.18,0.08l-0.42 -0.32c-0.12,-0.09 -0.21,-0.19 -0.32,-0.13 -0.12,0.07 -0.3,0.24 -0.39,0.34l-0.24 0.26c-0.07,0.09 -0.19,0.17 -0.08,0.31 0.08,0.09 0.37,0.45 0.43,0.56 -0.01,0.04 -0.1,0.2 -0.16,0.38 -0.16,0.03 -0.32,0.05 -0.48,0.07 -0.08,0.01 -0.16,0.03 -0.24,0.04 -0.11,0.02 -0.1,0.04 -0.15,0.12z"/>
  </g>
 </g>
</svg>
