<?xml version="1.0" encoding="UTF-8"?>
<!DOCTYPE svg PUBLIC "-//W3C//DTD SVG 1.1//EN" "http://www.w3.org/Graphics/SVG/1.1/DTD/svg11.dtd">
<!-- Creator: CorelDRAW 2017 -->
<svg xmlns="http://www.w3.org/2000/svg" xml:space="preserve" width="25.2342mm" height="21.6254mm" version="1.1" style="shape-rendering:geometricPrecision; text-rendering:geometricPrecision; image-rendering:optimizeQuality; fill-rule:evenodd; clip-rule:evenodd"
viewBox="0 0 42.32 36.27"
 xmlns:xlink="http://www.w3.org/1999/xlink">
 <defs>
  <style type="text/css">
   <![CDATA[
    .fil0 {fill:#03B2FC}
   ]]>
  </style>
 </defs>
 <g id="Слой_x0020_1">
  <metadata id="CorelCorpID_0Corel-Layer"/>
  <g id="_1694419033040">
   <path class="fil0" d="M39.24 31.93c0.01,0.41 -0.28,0.77 -0.49,0.95 -0.29,0.25 -0.68,0.36 -1.16,0.36 -1.02,-0 -2.04,-0 -3.06,0l-1.02 0 -1.08 0 -1.07 0 -1.08 0 -1.07 0 -1.08 0 -1.07 0 -1.08 0 -1.07 0 -1.08 0 -1.07 0 -1.08 0 -1.07 0 -1.08 0 -1.07 0 -1.08 0 -1.07 0 -1.08 0 -1.07 0 -1.08 0 -1.07 0 -1.08 0 -1.07 0 -1.08 0 -1.07 0 -1.08 0 -1.07 0 -1.08 0c-0.73,-0.06 -1.45,-0.59 -1.44,-1.3 -0.14,-0.23 -0.06,-5.36 -0.06,-5.64l0 -14.33c0,-0.92 -0.05,-1.98 0.01,-2.88 0.39,-0.09 8.38,-0.02 9.05,-0.03 3.01,-0.04 6.05,-0 9.07,-0 0.35,0 17.71,-0.06 18.12,0.04 0.06,0.74 0.01,4.6 0.01,5.67l0 16.86c-0,0.19 0.02,0.19 -0.06,0.32zm-36.19 -26.17l0 -1.03c0,-0.47 0.07,-0.79 0.29,-1.08 0.15,-0.19 0.47,-0.52 0.82,-0.51 0.26,-0.22 1.07,-0.09 1.45,-0.09l1.05 0 1.1 0 1.05 0 1.1 0 1.05 0 1.1 0 1.05 0 1.1 0 1.05 0 1.1 0 1.05 0 1.1 0 1.05 0 1.1 0 1.05 0 1.1 0 1.05 0 1.1 0 1.05 0 1.1 0 1.05 0 1.1 0 1.05 0 1.1 0 1.05 0 1.1 0 1.01 0c0.69,0 3.33,-0.08 3.78,0.09 1.1,0.42 1.04,1.6 0.96,2.93l-36.22 -0 -0.01 -0.3zm0.35 -5.6c-0.38,0.21 -0.72,0.15 -1.6,0.81l-0.35 0.29c-0.08,0.05 -0.02,0.02 -0.09,0.05 -0.08,0.14 0.04,-0.01 -0.1,0.15 -0.1,0.11 -0.04,0.04 -0.14,0.11 -0.03,0.13 -0.23,0.34 -0.31,0.46 -0.51,0.74 -0.42,0.91 -0.69,1.57l-0.09 1.13 -0 1.07 0 1.08 0 1.07 0 1.08 0 1.07 0 1.08 0 1.07 0 1.08 0 1.07 0 1.08 0 1.07 0 1.08 0 1.07 0 1.08 0 1.07 0 1.08 0 1.07 0 1.08 0 1.07 0 1.08 0 1.07 0 1.03c0.01,1.73 -0.25,4.1 0.5,5.49 0.7,1.3 1.72,2.1 3.51,2.45 1.41,0.08 2.97,0.02 4.4,0.02 8.69,0 17.46,0.04 26.14,-0 1.45,-0.01 2.94,0.09 4.35,-0.14 0.36,-0.22 0.84,-0.23 1.57,-0.78l0.34 -0.3c0.12,-0.08 0.04,-0.04 0.12,-0.06 0.18,-0.36 0.9,-0.85 1.22,-2.25 0.2,-0.86 0.12,-2.41 0.11,-3.36l-0 -1.01 0 -1.1 0 -1.04 0 -1.1 0 -1.04 0 -1.1 0 -1.04 0 -1.1 0 -1.04 0 -1.1 0 -1.04 0 -1.1 0 -1.04 0 -1.1 0 -1.04 0 -1.1 0 -1.04 0 -1.1 0 -1.04 0 -1.1 0 -1.04 0 -1.1 0 -1.05 -0.09 -1.14c-0.16,-0.39 -0.19,-0.7 -0.4,-1.1l-0.59 -0.93c-0.1,-0.06 -0.04,-0 -0.14,-0.11 -0.14,-0.15 -0.02,-0.01 -0.1,-0.15l-0.95 -0.68c-0.38,-0.22 -0.76,-0.29 -1.09,-0.46 -1.42,-0.23 -2.94,-0.13 -4.4,-0.14l-22.28 -0c-1.96,0 -7.28,-0.1 -8.86,0.14z"/>
   <path class="fil0" d="M9.93 13.82c-0.02,0.13 0.09,-0.02 -0.08,0.15 -0.16,0.17 -0.03,0.05 -0.15,0.08 -0.15,0.32 -0.5,0.47 -0.67,0.76 0.15,0.15 0.19,0.15 0.28,0.34 0.08,0.02 0.04,0 0.12,0.06l0.59 0.59c0.24,0.25 0.46,0.45 0.7,0.69l1.31 1.32c0.07,0.1 0.02,-0.01 0.04,0.09 0.27,0.13 1.79,1.72 1.87,1.83 -0.11,0.17 -1.68,1.76 -1.88,1.86 -0.05,0.12 -0.07,0.12 -0.18,0.23l-1.32 1.31c-0.28,0.28 -1.31,1.39 -1.54,1.5 0.08,0.29 1.23,1.34 1.53,1.63 0.1,0.1 0.17,0.17 0.27,0.27l0.26 0.31c0.23,-0.09 0.34,-0.26 0.5,-0.43 0.08,-0.08 0.13,-0.13 0.21,-0.22 0.11,-0.11 0.13,-0.15 0.25,-0.21 0.09,-0.18 0,-0.09 0.18,-0.19 0.07,-0.16 0.27,-0.32 0.42,-0.46 0.09,-0.09 0.15,-0.15 0.24,-0.24 0.11,-0.11 0.11,-0.13 0.23,-0.18 0.1,-0.18 0,-0.09 0.18,-0.18 0.07,-0.16 0.29,-0.33 0.42,-0.47 0.13,-0.13 0.31,-0.35 0.47,-0.42 0.09,-0.18 0,-0.09 0.18,-0.19 0.07,-0.17 0.27,-0.32 0.42,-0.47 0.15,-0.15 0.3,-0.35 0.47,-0.42 0.1,-0.18 0,-0.09 0.18,-0.18 0.07,-0.15 0.51,-0.56 0.66,-0.71 0.11,-0.11 0.11,-0.13 0.23,-0.18 0.09,-0.18 0.01,-0.09 0.18,-0.19 0.07,-0.17 0.27,-0.32 0.42,-0.47 0.15,-0.15 0.3,-0.35 0.47,-0.42 0.1,-0.18 0,-0.09 0.18,-0.18 0.05,-0.12 0.02,-0.06 0.12,-0.18 0.06,-0.06 0.1,-0.1 0.16,-0.16 0.12,-0.12 0.2,-0.22 0.33,-0.31 -0.11,-0.27 -3.24,-3.29 -3.55,-3.61 -0.58,-0.61 -1.17,-1.17 -1.77,-1.77 -0.31,-0.31 -0.57,-0.58 -0.88,-0.89 -0.24,-0.23 -0.65,-0.71 -0.89,-0.87 -0.29,0.26 -0.92,1 -1.2,1.13z"/>
   <polygon class="fil0" points="21.24,25.82 21.75,25.81 33.29,25.8 33.3,22.79 21.22,22.8 "/>
  </g>
 </g>
</svg>
