<?xml version="1.0" encoding="UTF-8"?>
<!DOCTYPE svg PUBLIC "-//W3C//DTD SVG 1.1//EN" "http://www.w3.org/Graphics/SVG/1.1/DTD/svg11.dtd">
<!-- Creator: CorelDRAW 2017 -->
<svg xmlns="http://www.w3.org/2000/svg" xml:space="preserve" width="21.2979mm" height="21.6256mm" version="1.1" style="shape-rendering:geometricPrecision; text-rendering:geometricPrecision; image-rendering:optimizeQuality; fill-rule:evenodd; clip-rule:evenodd"
viewBox="0 0 28.9 29.34"
 xmlns:xlink="http://www.w3.org/1999/xlink">
 <defs>
  <style type="text/css">
   <![CDATA[
    .fil0 {fill:#03B2FC}
   ]]>
  </style>
 </defs>
 <g id="Слой_x0020_1">
  <metadata id="CorelCorpID_0Corel-Layer"/>
  <g id="_1695176950832">
   <path class="fil0" d="M18.01 26.46c0.58,-0.53 1.12,-1.12 1.58,-1.76 0.47,-0.67 0.91,-1.31 1.29,-2.06 0.1,-0.21 0.04,-0.21 0.31,-0.21l3.56 0.01c-0.08,0.23 -1.17,1.31 -1.42,1.53 -1.08,0.97 -2.28,1.73 -3.67,2.32 -0.42,0.18 -1.77,0.69 -2.24,0.71l0.58 -0.53zm-2.73 -0.41c-0.05,0.04 0.07,0.06 -0.08,0.03l0.01 -3.66c0.3,-0.06 2.09,-0.02 2.63,-0.02 0.14,0 0.28,-0 0.43,-0 0.51,-0.01 0.35,-0.02 0.4,0.06 -0.61,1.03 -1.49,2.08 -2.4,2.85 -0.21,0.18 -0.77,0.63 -1,0.74zm-2.07 0.11c-0.53,-0.24 -1.43,-1.16 -1.85,-1.64 -0.27,-0.31 -1.28,-1.72 -1.36,-2.1l3.19 0c0.05,0.15 0.06,3.46 0.02,3.74zm-2.55 0.61c-0.59,-0.11 -1.51,-0.53 -2,-0.76 -1.02,-0.48 -1.65,-0.92 -2.48,-1.56 -0.38,-0.29 -1.95,-1.75 -1.99,-2.03l3.55 0c0.12,0.19 0.2,0.42 0.3,0.63 1.44,2.83 2.35,3.29 2.61,3.72zm4.56 -6.34c-0.08,-0.1 -0.04,-0.21 -0.05,-0.4l0 -1.25 -1.95 -0c0.02,0.22 0.05,1.51 -0.02,1.64l-4.04 -0c-0.16,-0.25 -0.4,-1.28 -0.49,-1.66l-2.04 -0c0.01,0.42 0.3,1.22 0.39,1.67l-4.21 -0.01c-0.1,-0.27 -0.25,-0.55 -0.38,-0.82 -0.13,-0.28 -0.21,-0.55 -0.34,-0.84l-2.08 -0c0.05,0.51 0.63,1.77 0.87,2.26 0.54,1.1 1.11,1.96 1.86,2.85 0.77,0.92 1.42,1.56 2.37,2.29 4.9,3.75 11.35,4.2 16.79,1.23 0.37,-0.2 0.62,-0.36 0.97,-0.59 1.56,-1.05 2.87,-2.25 3.97,-3.85 0.2,-0.3 0.45,-0.63 0.61,-0.94 0.44,-0.81 1.34,-2.46 1.41,-3.25l-2.08 0.01c-0.13,0.3 -0.22,0.56 -0.34,0.86 -0.12,0.28 -0.26,0.53 -0.38,0.8l-4.31 -0.01c0.14,-0.47 0.38,-1.17 0.44,-1.65l-2.03 0.01c-0.11,0.45 -0.33,1.29 -0.52,1.66l-4.44 0.01z"/>
   <path class="fil0" d="M15.23 3.17c0.22,0.09 0.73,0.54 0.94,0.7 0.3,0.25 0.58,0.54 0.85,0.82 0.27,0.29 1.37,1.59 1.43,1.92l-3.21 -0 -0.01 -3.44zm-2 0.01l0 3.43 -3.01 -0c0.12,-0.52 1.48,-2.16 2.08,-2.7 0.16,-0.14 0.27,-0.24 0.43,-0.38 0.09,-0.08 0.36,-0.29 0.49,-0.35zm-5.33 3.43l-3.47 0c0.1,-0.23 1.03,-1.12 1.27,-1.32 1.17,-0.97 1.8,-1.42 3.16,-2.05 0.42,-0.2 1.47,-0.65 1.95,-0.7 -0.07,0.14 -0.31,0.32 -0.42,0.44 -0.44,0.49 -0.81,0.87 -1.2,1.44 -0.32,0.47 -0.73,1.09 -0.99,1.61 -0.09,0.18 -0.21,0.45 -0.3,0.58zm12.91 -0.01c-0.12,-0.2 -0.24,-0.42 -0.34,-0.62 -0.31,-0.59 -1.09,-1.65 -1.55,-2.19 -0.57,-0.66 -0.86,-0.88 -1.33,-1.35 -0.05,-0.05 -0.02,-0.01 -0.06,-0.07 2.12,0.38 4.06,1.57 5.6,2.82 0.28,0.22 1.3,1.19 1.38,1.42l-3.7 -0.01zm-20.71 3.71l2.13 -0c0.07,-0.36 0.59,-1.38 0.78,-1.7l4.1 -0.01c-0.02,0.18 -0.35,1.21 -0.43,1.71l2.07 0c0.06,-0.42 0.37,-1.36 0.51,-1.7l3.96 -0.01 0.01 1.7 2 0 -0 -1.71 4.29 0 0.59 1.7 2.05 0.01c-0.07,-0.55 -0.42,-1.36 -0.48,-1.7l4.26 -0.01c0.18,0.35 0.7,1.31 0.77,1.71l2.12 0.01c-0.33,-1.36 -1.37,-3.11 -2.07,-4.09 -0.1,-0.14 -0.22,-0.28 -0.32,-0.42l-1.08 -1.25c-2.79,-2.89 -6.81,-4.53 -10.89,-4.55 -1.86,-0.01 -3.65,0.36 -5.23,0.92 -1.54,0.54 -2.9,1.35 -4,2.18 -1.22,0.92 -2.09,1.83 -3.05,3.1 -0.65,0.86 -1.79,2.86 -2.08,4.12z"/>
   <path class="fil0" d="M24.73 13.58c0.22,0.27 0.93,2.89 1.24,3.24 0.37,0.41 1.29,0.34 1.55,-0.14 0.11,-0.21 0.49,-1.35 0.6,-1.66 0.19,-0.52 0.38,-1.13 0.57,-1.64 0.09,-0.24 0.28,-0.63 0.08,-0.88 -0.16,-0.21 -0.54,-0.29 -0.87,-0.21 -0.52,0.12 -0.59,0.9 -0.76,1.46 -0.17,0.58 -0.33,1.17 -0.5,1.75 -0.05,-0.05 -0.02,0 -0.08,-0.11l-0.62 -1.79c-0.27,-0.72 -0.29,-1.34 -1.22,-1.34 -0.91,0 -0.96,0.62 -1.22,1.34 -0.1,0.28 -0.6,1.8 -0.68,1.91 -0.26,-0.83 -0.49,-1.79 -0.75,-2.59 -0.1,-0.31 -0.19,-0.57 -0.5,-0.64 -0.32,-0.07 -0.67,-0.01 -0.86,0.17 -0.22,0.22 -0.06,0.59 0.03,0.85 0.21,0.6 0.38,1.09 0.58,1.67 0.18,0.51 0.37,1.17 0.58,1.63 0.12,0.26 0.33,0.41 0.67,0.45 0.34,0.04 0.65,-0.01 0.87,-0.23 0.3,-0.29 1.02,-2.67 1.25,-3.26z"/>
   <path class="fil0" d="M14.43 13.59c0.2,0.27 0.92,2.88 1.24,3.22 0.38,0.41 1.3,0.35 1.55,-0.14 0.13,-0.26 1.06,-2.98 1.17,-3.3 0.09,-0.25 0.28,-0.65 0.08,-0.88 -0.16,-0.19 -0.52,-0.28 -0.86,-0.21 -0.33,0.07 -0.43,0.3 -0.52,0.61 -0.09,0.29 -0.17,0.58 -0.25,0.87 -0.16,0.54 -0.32,1.24 -0.51,1.75 -0.14,-0.21 -0.79,-2.37 -1.02,-2.82 -0.16,-0.31 -0.42,-0.44 -0.88,-0.44 -0.9,0.01 -0.95,0.59 -1.22,1.34 -0.1,0.28 -0.59,1.78 -0.68,1.91 -0.09,-0.25 -0.16,-0.57 -0.25,-0.84l-0.5 -1.75c-0.09,-0.29 -0.2,-0.58 -0.49,-0.64 -0.28,-0.06 -0.67,-0.02 -0.86,0.17 -0.22,0.22 -0.07,0.57 0.03,0.86 0.27,0.77 0.9,2.7 1.16,3.3 0.27,0.6 1.2,0.56 1.54,0.21 0.26,-0.26 0.52,-1.17 0.67,-1.59l0.59 -1.65z"/>
   <path class="fil0" d="M4.12 13.59c0.1,0.14 0.51,1.37 0.6,1.62 0.12,0.37 0.44,1.4 0.64,1.61 0.35,0.37 1.29,0.37 1.55,-0.15 0.17,-0.34 0.99,-2.76 1.17,-3.3 0.09,-0.26 0.27,-0.65 0.08,-0.88 -0.14,-0.17 -1.08,-0.63 -1.38,0.4 -0.09,0.3 -0.17,0.58 -0.25,0.87 -0.17,0.56 -0.33,1.2 -0.51,1.75 -0.09,-0.12 -0.57,-1.58 -0.67,-1.88 -0.24,-0.71 -0.34,-1.39 -1.23,-1.38 -0.9,0.02 -0.98,0.63 -1.22,1.34 -0.09,0.26 -0.58,1.78 -0.67,1.91 -0.19,-0.5 -0.34,-1.16 -0.5,-1.72 -0.14,-0.49 -0.28,-1.4 -0.75,-1.51 -0.3,-0.07 -0.68,-0 -0.86,0.17 -0.22,0.22 -0.07,0.59 0.03,0.86 0.26,0.69 0.96,2.88 1.17,3.3 0.26,0.53 1.12,0.63 1.55,0.21 0.23,-0.23 0.77,-1.92 0.96,-2.43 0.06,-0.17 0.22,-0.69 0.3,-0.81z"/>
   <path class="fil0" d="M13.22 20.43c0.08,-0.13 0.05,-1.42 0.02,-1.64l1.95 0 0 1.25c0,0.19 -0.04,0.31 0.05,0.4l0 -1.67 -2.02 -0.02 -0 1.68z"/>
  </g>
 </g>
</svg>
