<?xml version="1.0" encoding="UTF-8"?>
<!DOCTYPE svg PUBLIC "-//W3C//DTD SVG 1.1//EN" "http://www.w3.org/Graphics/SVG/1.1/DTD/svg11.dtd">
<!-- Creator: CorelDRAW 2017 -->
<svg xmlns="http://www.w3.org/2000/svg" xml:space="preserve" width="35.3348mm" height="35.3348mm" version="1.1" style="shape-rendering:geometricPrecision; text-rendering:geometricPrecision; image-rendering:optimizeQuality; fill-rule:evenodd; clip-rule:evenodd"
viewBox="0 0 87.04 87.04"
 xmlns:xlink="http://www.w3.org/1999/xlink">
 <defs>
  <style type="text/css">
   <![CDATA[
    .fil1 {fill:#FEFEFE}
    .fil0 {fill:#023449}
   ]]>
  </style>
 </defs>
 <g id="Слой_x0020_1">
  <metadata id="CorelCorpID_0Corel-Layer"/>
  <circle class="fil0" cx="43.52" cy="43.52" r="43.52"/>
  <path class="fil1" d="M39.31 22.06c-0.13,0.24 -0.21,0.32 -0.38,0.56 -0.14,0.21 -0.2,0.37 -0.36,0.49l-0.03 0.07c-0.07,0.23 -0.2,0.42 -0.29,0.63 -0.08,0.18 -0.15,0.42 -0.28,0.57 0,0.19 -0.24,0.83 -0.32,1.09 -0.08,0.29 -0.21,0.79 -0.23,1.1l-0.17 1.06 -0.08 1.03c-0.05,1.06 -0.04,2.17 -0.03,3.24l0 2.41c0,0.43 0.08,0.62 -0.09,0.72l-0.64 0.01 -1.14 -0 -1.06 0 -1.14 -0c-0.32,-0 -0.7,0.04 -1.01,-0.03 -0.09,0.56 -0.03,1.55 -0.03,2.16 -0,0.71 0,1.43 0,2.14 0,1.3 0.09,3.01 -0.01,4.25l5.06 -0.03c0.16,0.1 0.08,0.53 0.08,0.72l-0 11.58c0,4.13 -0.02,8.27 0.01,12.41l10.16 -0.01 -0 -24.67 6.82 -0.03 0.86 -8.17 -0.01 -0.35c-0.31,0.07 -0.68,0.03 -1.01,0.03l-1.16 0 -1.03 0 -1.16 0 -1.03 0 -1.16 0 -1.01 -0.01c-0.14,-0.11 -0.11,0.02 -0.09,-0.61 0.02,-0.78 -0.08,-4.03 0.05,-4.27 -0.16,-0.73 0.24,-1.73 0.6,-2.09 0.34,-0.34 1.32,-0.78 2.02,-0.65 0.16,-0.1 0.33,-0.06 0.6,-0.07 1.23,-0.03 3.48,0.07 4.38,-0.02l-0.01 -8.5 -7.88 0c-0.17,0.07 -2.04,0.24 -2.47,0.33 -1.58,0.32 -3.62,1.11 -4.66,2.25l-0.66 0.66z"/>
 </g>
</svg>
