<?xml version="1.0" encoding="UTF-8"?>
<!DOCTYPE svg PUBLIC "-//W3C//DTD SVG 1.1//EN" "http://www.w3.org/Graphics/SVG/1.1/DTD/svg11.dtd">
<!-- Creator: CorelDRAW 2017 -->
<svg xmlns="http://www.w3.org/2000/svg" xml:space="preserve" width="35.3348mm" height="35.3348mm" version="1.1" style="shape-rendering:geometricPrecision; text-rendering:geometricPrecision; image-rendering:optimizeQuality; fill-rule:evenodd; clip-rule:evenodd"
viewBox="0 0 81.86 81.86"
 xmlns:xlink="http://www.w3.org/1999/xlink">
 <defs>
  <style type="text/css">
   <![CDATA[
    .str0 {stroke:#FEFEFE;stroke-width:0.59;stroke-miterlimit:22.9256}
    .fil1 {fill:#FEFEFE}
    .fil0 {fill:#023449}
   ]]>
  </style>
 </defs>
 <g id="Слой_x0020_1">
  <metadata id="CorelCorpID_0Corel-Layer"/>
  <g id="_1695177011440">
   <circle class="fil0" cx="40.93" cy="40.93" r="40.93"/>
   <g>
    <path class="fil1 str0" d="M29.11 19.4l22.7 0c5.68,0 10.32,4.64 10.32,10.32l0 22.7c0,5.68 -4.64,10.32 -10.32,10.32l-22.7 0c-5.68,0 -10.32,-4.64 -10.32,-10.32l0 -22.7c0,-5.68 4.64,-10.32 10.32,-10.32zm1.62 3.09l19.47 0c4.87,0 8.85,3.98 8.85,8.85l0 19.47c0,4.87 -3.98,8.85 -8.85,8.85l-19.47 0c-4.87,0 -8.85,-3.98 -8.85,-8.85l0 -19.47c0,-4.87 3.98,-8.85 8.85,-8.85z"/>
    <g>
     <path class="fil1 str0" d="M40.61 32.18c1.2,0 2.2,0.08 3.3,0.5 0.27,0.1 0.88,0.36 1.1,0.49 0.28,0.17 0.68,0.37 0.97,0.59 0.33,0.25 0.86,0.67 1.15,0.96 0.23,0.23 0.75,0.86 0.94,1.14l0.69 1.13c0.22,0.42 0.53,1.24 0.65,1.73 0.58,2.35 0.24,4.55 -0.91,6.61 -0.4,0.71 -0.72,1.04 -1.23,1.63l-0.68 0.65c-0.2,0.16 -0.38,0.31 -0.59,0.45 -1.31,0.89 -2.99,1.6 -4.71,1.6 -1.1,0 -1.46,0.01 -2.56,-0.27 -1.16,-0.29 -1.95,-0.74 -2.92,-1.37 -0.26,-0.17 -0.94,-0.76 -1.16,-0.99l-0.84 -1.02c-0.32,-0.46 -0.46,-0.68 -0.72,-1.17 -1.23,-2.35 -1.21,-5.43 -0.02,-7.82 0.28,-0.56 0.67,-1.16 1.06,-1.64 0.05,-0.06 0.07,-0.07 0.12,-0.14l0.38 -0.43c0.24,-0.26 0.88,-0.8 1.16,-0.99 0.11,-0.08 0.19,-0.14 0.31,-0.21l0.67 -0.4c1.02,-0.59 2.6,-1.04 3.84,-1.04zm-11.7 8.74c0,1.48 0.38,3.56 1.07,4.94 0.51,1.03 0.95,1.86 1.73,2.76 0.38,0.44 0.65,0.75 1.11,1.17 0.08,0.07 0.12,0.08 0.2,0.16 0.71,0.69 2.11,1.54 2.98,1.93 3.39,1.51 7.06,1.41 10.38,-0.25 0.53,-0.26 0.7,-0.39 1.18,-0.67 0.68,-0.41 1.71,-1.33 2.25,-1.91 0.07,-0.08 0.09,-0.12 0.16,-0.2 0.23,-0.25 0.79,-0.97 0.98,-1.27 2.29,-3.51 2.66,-7.76 0.95,-11.6 -0.65,-1.46 -1.66,-2.84 -2.84,-3.93l-0.4 -0.34c-0.15,-0.12 -0.26,-0.22 -0.41,-0.33 -0.15,-0.12 -0.28,-0.2 -0.43,-0.32 -1.18,-0.88 -2.74,-1.49 -4.16,-1.85 -1.62,-0.41 -3.76,-0.42 -5.38,-0.01 -0.22,0.05 -0.39,0.09 -0.6,0.15 -0.08,0.02 -0.19,0.06 -0.27,0.09 -0.11,0.03 -0.19,0.05 -0.3,0.09 -0.57,0.2 -1.08,0.41 -1.6,0.67 -0.1,0.05 -0.13,0.08 -0.23,0.13 -0.1,0.05 -0.16,0.08 -0.26,0.13 -1.27,0.75 -2.13,1.44 -3.09,2.53 -0.61,0.69 -1.26,1.64 -1.68,2.45 -0.09,0.18 -0.16,0.35 -0.25,0.53 -0.16,0.32 -0.3,0.71 -0.43,1.07l-0.33 1.17c-0.19,0.74 -0.32,1.78 -0.32,2.7z"/>
     <path class="fil1 str0" d="M50.39 29.03l0 0.29c0,0.74 0.52,1.45 1.03,1.79 1.18,0.79 2.68,0.42 3.42,-0.85 0.75,-1.3 -0.07,-3.48 -2.14,-3.48 -0.67,0 -1.26,0.33 -1.6,0.67 -0.34,0.34 -0.71,0.9 -0.71,1.57z"/>
    </g>
   </g>
  </g>
 </g>
</svg>
