<?xml version="1.0" encoding="UTF-8"?>
<!DOCTYPE svg PUBLIC "-//W3C//DTD SVG 1.1//EN" "http://www.w3.org/Graphics/SVG/1.1/DTD/svg11.dtd">
<!-- Creator: CorelDRAW 2017 -->
<svg xmlns="http://www.w3.org/2000/svg" xml:space="preserve" width="35.3348mm" height="35.3348mm" version="1.1" style="shape-rendering:geometricPrecision; text-rendering:geometricPrecision; image-rendering:optimizeQuality; fill-rule:evenodd; clip-rule:evenodd"
viewBox="0 0 92.54 92.54"
 xmlns:xlink="http://www.w3.org/1999/xlink">
 <defs>
  <style type="text/css">
   <![CDATA[
    .fil1 {fill:#FEFEFE}
    .fil0 {fill:#023449}
   ]]>
  </style>
 </defs>
 <g id="Слой_x0020_1">
  <metadata id="CorelCorpID_0Corel-Layer"/>
  <circle class="fil0" cx="46.27" cy="46.27" r="46.27"/>
  <path class="fil1" d="M27.35 41.27l0 0zm0 0c-1.12,0 -3.12,-0.59 -4.14,-1 -0.14,-0.06 -0.4,-0.19 -0.55,-0.22 0,2.49 0.73,4.76 2.22,6.58l0.82 0.94c0.06,0.07 0.07,0.07 0.14,0.13l0.41 0.36c0.01,0.01 0.02,0.01 0.02,0.02 0.01,0.01 0.02,0.01 0.02,0.02l0.35 0.28c0.12,0.09 0.2,0.16 0.33,0.26 0.97,0.7 2,1.16 3.14,1.55 0.23,0.08 0.73,0.21 0.99,0.23 -0.01,0.01 -0.03,0 -0.03,0.01 -0.02,0.06 -0,0.01 -0.06,0.03 -0.45,0.17 -1.68,0.37 -2.12,0.37 -0.63,-0 -1.31,0.04 -1.93,-0.06 -0.17,-0.03 -0.37,-0.11 -0.55,-0.12 0.01,0.15 0.1,0.32 0.15,0.48 0.23,0.69 0.74,1.55 1.19,2.15l0.42 0.57c0.07,0.09 0.09,0.1 0.17,0.19 0.22,0.26 0.38,0.46 0.61,0.7l0.52 0.56c0.38,0.38 0.9,0.89 1.36,1.21l0.56 0.43c0.71,0.51 1.45,1.03 2.24,1.41l0.69 0.35c0.48,0.27 1.38,0.56 1.94,0.72 0.74,0.21 1.39,0.33 2.33,0.33 -0.16,0.23 -1.21,0.92 -1.5,1.12l-1.57 1.04c-1.12,0.67 -2.27,1.31 -3.53,1.74 -0.34,0.12 -0.63,0.23 -0.97,0.34 -0.15,0.05 -0.33,0.08 -0.5,0.14 -0.87,0.28 -1.83,0.42 -2.78,0.56l-1.78 0.16c-0.23,0.01 -0.44,-0.02 -0.66,0.02 -0.64,0.1 -1.91,0.03 -2.64,0.03l0.79 0.47c1.89,1.13 4.39,1.97 6.55,2.43 0.33,0.07 0.66,0.17 1.05,0.22 0.36,0.05 0.68,0.13 1.08,0.19l2.89 0.31c1.41,0.15 2.9,0.17 4.34,0.17 0.83,0 2.15,-0.06 2.99,-0.17 0.19,-0.02 0.42,-0.05 0.57,-0.06 0.94,-0.05 1.87,-0.24 2.78,-0.42 1.47,-0.28 3.12,-0.68 4.54,-1.24 0.19,-0.07 0.26,-0.11 0.46,-0.17 0.2,-0.06 0.26,-0.11 0.45,-0.18 1.8,-0.72 3.5,-1.58 5.09,-2.62 1.51,-0.99 3,-2.11 4.28,-3.39 2.1,-2.1 3.48,-3.79 5.09,-6.46 0.16,-0.26 0.29,-0.54 0.46,-0.81 0.17,-0.28 0.28,-0.54 0.44,-0.83 0.16,-0.3 0.27,-0.53 0.41,-0.85 0.13,-0.3 0.28,-0.58 0.41,-0.9 0.49,-1.2 1,-2.45 1.35,-3.8 0.86,-3.32 1.13,-5.39 1.13,-9.11 0.16,-0.04 0.07,-0.03 0.2,-0.11 0.99,-0.64 2.71,-2.19 3.4,-3.05l0.38 -0.43c0.28,-0.33 1.35,-1.56 1.43,-1.87 -0.26,0.02 -1.07,0.41 -1.37,0.52 -0.72,0.28 -1.4,0.49 -2.16,0.68 -0.28,0.07 -0.48,0.11 -0.77,0.17 -0.27,0.06 -0.53,0.12 -0.79,0.15 -0.29,0.03 -0.57,0.1 -0.85,0.1 0.03,-0.03 0.01,-0.01 0.07,-0.06 0.06,-0.04 0.06,-0.04 0.11,-0.07l1.3 -0.96c0.33,-0.31 0.7,-0.59 0.98,-0.96 0.12,-0.16 0.2,-0.21 0.32,-0.36 0.62,-0.8 1.6,-2.19 1.87,-3.14 0.08,-0.29 -0.46,0.14 -0.84,0.33 -1.6,0.79 -2.21,1.06 -3.95,1.6 -0.19,0.06 -0.32,0.1 -0.53,0.15 -0.19,0.04 -0.37,0.1 -0.58,0.14 -1.07,0.25 -0.7,0.22 -1.42,-0.33 -0.13,-0.1 -0.26,-0.21 -0.4,-0.33l-2.09 -1.34c-1.75,-0.98 -4.49,-1.41 -6.41,-1.13 -1.7,0.24 -3.12,0.74 -4.58,1.64 -0.72,0.44 -1.35,0.98 -1.94,1.58 -0.46,0.46 -0.87,0.99 -1.22,1.53 -0.27,0.42 -0.55,0.87 -0.74,1.33 -0.53,1.24 -0.93,2.61 -0.94,3.98 -0,0.79 -0.01,2.07 0.23,2.57 -3.85,0 -6.62,-0.62 -9.78,-1.77 -0.67,-0.24 -1.37,-0.52 -2.01,-0.84l-2.68 -1.42 -2.08 -1.35c-0.83,-0.57 -2.2,-1.63 -2.91,-2.33l-2.66 -2.57c-0.58,-0.58 -1.09,-1.22 -1.65,-1.83 -0.19,-0.2 -0.33,-0.47 -0.55,-0.62 -0.35,0.66 -0.51,0.75 -0.87,1.61 -0.11,0.26 -0.24,0.66 -0.31,0.95 -0.13,0.51 -0.2,1.07 -0.28,1.61l-0.07 1.19c-0,0.27 0.04,0.35 0.05,0.58 0.02,0.8 0.19,1.5 0.37,2.16l0.33 0.93c0.49,1.22 1.31,2.53 2.24,3.44 0.11,0.11 0.2,0.22 0.32,0.31 0.15,0.12 0.2,0.16 0.34,0.3 0.23,0.23 0.92,0.67 1.05,0.85z"/>
 </g>
</svg>
