<?xml version="1.0" encoding="UTF-8"?>
<!DOCTYPE svg PUBLIC "-//W3C//DTD SVG 1.1//EN" "http://www.w3.org/Graphics/SVG/1.1/DTD/svg11.dtd">
<!-- Creator: CorelDRAW 2017 -->
<svg xmlns="http://www.w3.org/2000/svg" xml:space="preserve" width="35.3348mm" height="35.3348mm" version="1.1" style="shape-rendering:geometricPrecision; text-rendering:geometricPrecision; image-rendering:optimizeQuality; fill-rule:evenodd; clip-rule:evenodd"
viewBox="0 0 92.54 92.54"
 xmlns:xlink="http://www.w3.org/1999/xlink">
 <defs>
  <style type="text/css">
   <![CDATA[
    .fil1 {fill:#FEFEFE}
    .fil0 {fill:#023449}
   ]]>
  </style>
 </defs>
 <g id="Слой_x0020_1">
  <metadata id="CorelCorpID_0Corel-Layer"/>
  <circle class="fil0" cx="46.27" cy="46.27" r="46.27"/>
  <path class="fil1" d="M18.98 34.02c0.02,0.02 0.04,0.05 0.05,0.07 0.01,0.02 0.03,0.05 0.04,0.07l0.68 1.9c0.31,0.62 0.57,1.44 0.89,2.12 1.05,2.29 1.67,3.62 3,5.88 2.97,5.05 5.99,9.55 10.39,13.26 1.04,0.88 2.23,1.72 3.49,2.47 0.62,0.37 1.24,0.7 1.91,1.02 0.28,0.13 1.9,0.78 1.99,0.87 0.66,0.13 1.35,0.42 2.04,0.57 2.18,0.48 4.87,0.77 7.08,0.26 1.9,-0.43 1.83,-1.4 1.82,-3.38 -0,-0.78 -0.14,-4.71 0.12,-5.04 -0.04,-1.19 1.11,-1.49 2.25,-1.16 0.6,0.17 2.14,0.92 2.3,1.31 0.4,0.16 0.63,0.4 0.92,0.64 0.32,0.27 0.62,0.47 0.78,0.73 0.13,0.07 -0.03,-0.08 0.15,0.1 0.16,0.16 0.08,0.08 0.14,0.21 0.38,0.18 0.63,0.47 0.93,0.77 0.16,0.15 0.24,0.23 0.4,0.38 0.25,0.23 0.27,0.21 0.42,0.52 0.14,0.04 0.04,-0.07 0.16,0.07 0.12,0.14 0.03,0.01 0.08,0.16 0.28,0.14 0.24,0.13 0.47,0.37 0.15,0.16 0.22,0.25 0.37,0.41 0.27,0.31 0.55,0.55 0.79,0.91 0.23,0.12 0.23,0.13 0.3,0.38 0.16,0.1 0.07,0.03 0.2,0.14 0.1,0.08 0.13,0.12 0.21,0.2 0.18,0.18 0.23,0.24 0.37,0.41 0.14,0.17 0.22,0.25 0.36,0.42 0.2,0.22 0.22,0.22 0.36,0.47 0.19,0.07 0.08,-0.01 0.27,0.17 0.02,0.02 0.07,0.08 0.09,0.1 0.11,0.14 0.04,0.04 0.1,0.16 0.39,0.17 0.54,0.38 1.04,0.58 0.48,0.19 0.89,0.2 1.46,0.2l6.55 0.01c1.43,0.01 1.63,-0.09 2.01,-1.22 0.06,-0.94 -0.23,-1.36 -0.46,-2.12l-1.85 -2.73c-0.3,-0.39 -0.55,-0.6 -0.63,-0.9 -0.3,-0.17 -2.58,-2.83 -2.98,-3.31 -3.23,-3.92 -5.61,-4.35 -3.71,-7.12 0.28,-0.41 2.25,-3.41 2.57,-3.63 0.04,-0.21 0.89,-1.61 1.1,-1.72 0.13,-0.36 3.03,-4.89 4.05,-7.25 0.65,-1.51 1.24,-3.29 -1.18,-3.37 -1.81,-0.06 -3.76,-0.01 -5.58,-0 -2.49,0.01 -2.68,0.19 -3.62,2.08 -1.17,2.35 -2.68,5.02 -4.08,7.16 -0.63,0.96 -1.61,2.43 -2.33,3.23 -0.16,0.22 -0.14,0.16 -0.29,0.26 -0.09,0.32 -0.48,0.71 -0.73,0.98 -0.34,0.37 -0.54,0.59 -0.85,0.91 -0.54,0.56 -1.13,1.22 -2.22,1.4 -1.28,-0.08 -1.04,-1.87 -1.04,-2.99 0.01,-1.34 -0.01,-2.67 0,-4.01 0.02,-2.64 0.04,-5.32 -0.01,-7.96l-0.03 -0.25c-0.2,-1.13 -0.62,-0.92 -1.04,-1.2l-1.67 0.05 -2.12 0 -1.8 0 -2.1 -0 -1.81 0 -2.12 0.06c-0.45,0.35 -0.34,0.27 -0.67,0.64 -0.09,1.21 0.54,1.64 1.02,2.26 0.48,0.63 0.91,1.3 1.1,2.2 0.17,0.35 0.3,1.03 0.19,1.43l0.06 0.16c0.15,0.55 0.08,6.67 0.06,8.18 -0.01,0.46 -0.01,0.91 -0,1.37 0,0.44 0.07,0.99 -0.11,1.3 0.23,0.9 -0.63,1.79 -1.35,1.23 -1.17,-0.32 -3.37,-2.87 -3.97,-3.97 -0.17,-0.14 -0.09,-0.02 -0.09,-0.23 -0.15,-0.11 -0.05,0 -0.23,-0.2l-1 -1.65c-0.14,-0.06 -0.18,-0.18 -0.29,-0.37 -0.37,-0.64 -1.7,-2.91 -1.72,-3.31 -0.24,-0.23 -0.32,-0.49 -0.48,-0.83l-1.12 -2.49c-1.47,-3.48 -1.42,-5.68 -4,-5.76 -1.6,-0.05 -3.21,0.01 -4.81,-0l-2.1 0c-1.12,0.09 -1.71,0.79 -1.57,2.01 0.09,0.77 0.65,2.48 0.63,2.96z"/>
 </g>
</svg>
