<?xml version="1.0" encoding="utf-8"?><svg xml:space="preserve" viewBox="0 0 100 100" y="0" x="0" xmlns="http://www.w3.org/2000/svg" id="圖層_1" version="1.1" width="128px" height="128px" xmlns:xlink="http://www.w3.org/1999/xlink" style="width:100%;height:100%;background-size:initial;background-repeat-y:initial;background-repeat-x:initial;background-position-y:initial;background-position-x:initial;background-origin:initial;background-image:initial;background-color:rgb(241, 242, 243);background-clip:initial;background-attachment:initial;animation-play-state:paused" ><g class="ldl-scale" style="transform-origin:50% 50%;transform:rotate(0deg) scale(0.8, 0.8);animation-play-state:paused" ><path fill="#333" d="M76.5 90h-53C16 90 10 84 10 76.5v-53C10 16 16 10 23.5 10h53C84 10 90 16 90 23.5v53C90 84 84 90 76.5 90z" style="fill:rgb(29, 63, 114);animation-play-state:paused" ></path>
<path fill="#b3b3b3" clip-rule="evenodd" fill-rule="evenodd" d="M75 59.2c0-3.8-2.5-7.1-5.9-8.2.1-.8.2-1.6.2-2.4 0-9-7.3-16.4-16.4-16.4-7.8 0-14.3 5.4-16 12.7h-.4C30.1 44.8 25 50 25 56.3c0 6.3 5.1 11.5 11.5 11.5h31v-.1c4.2-.5 7.5-4.1 7.5-8.5z" style="fill:rgb(200, 234, 245);animation-play-state:paused" ></path>
<path fill="#fff" d="M61.4 50.9c.4 0 .6.5.4.9L51.7 63.1c-.1.1-.2.2-.4.2-.1 0-.3-.1-.4-.2l-10-11.4c-.3-.3-.1-.9.4-.9h7v-7.6c0-.4.3-.7.7-.7h4.8c.4 0 .7.3.7.7v7.6h6.9z" id="XMLID_24_" style="fill:rgb(29, 63, 114);animation-play-state:paused" ></path>
<metadata xmlns:d="https://loading.io/stock/" style="animation-play-state:paused" ><d:name style="animation-play-state:paused" >download</d:name>
<d:tags style="animation-play-state:paused" >download,receive,cloud,fetch,sync,ftp</d:tags>
<d:license style="animation-play-state:paused" >by</d:license>
<d:slug style="animation-play-state:paused" >xn3omx</d:slug></metadata></g><!-- generated by https://loading.io/ --></svg>