<?xml version="1.0"?>
<svg width="667" height="449" xmlns="http://www.w3.org/2000/svg" xmlns:svg="http://www.w3.org/2000/svg" xmlns:xlink="http://www.w3.org/1999/xlink">
 <!-- Created with SVG-edit - https://github.com/SVG-Edit/svgedit-->
 <defs>
  <symbol id="svg_2" viewBox="0 0 489.1 473" x="0px" xmlns="http://www.w3.org/2000/svg" xmlns:xlink="http://www.w3.org/1999/xlink" y="0px">
   <g>
    <path d="m66.4,347l-23.5,15.7c-0.8,0.6 -0.8,1.8 0,2.3l23.5,15.7c0.9,0.6 2.2,0 2.2,-1.2l0,-11.1c0,-0.5 -0.2,-0.9 -0.6,-1.2l-3.4,-2.3c-0.8,-0.6 -0.8,-1.8 0,-2.3l3.4,-2.3c0.4,-0.3 0.6,-0.7 0.6,-1.2l0,-11.1c0,-1 -1.3,-1.7 -2.2,-1z" fill="silver"/>
    <path d="m201.7,365l-24,16c-0.9,0.6 -2.2,0 -2.2,-1.2l0,-10.8c0,-0.5 0.2,-0.9 0.6,-1.2l4.6,-3.1c0.8,-0.6 0.8,-1.8 0,-2.3l-4.5,-3c-0.4,-0.3 -0.6,-0.7 -0.6,-1.2l0,-10.5c0,-1.1 1.2,-1.8 2.2,-1.2l24,16c0.7,0.7 0.7,1.9 -0.1,2.5z" fill="silver"/>
    <path d="m167.3,339.8c0.4,0.3 0.6,0.7 0.6,1.2l0,46.4l0,0l-7.5,5.1l-37.4,25c-0.5,0.3 -1.1,0.3 -1.6,0l-4.5,-3c-0.4,-0.3 -0.6,-0.7 -0.6,-1.2l0,-83.1c0,-1.1 -1.3,-1.8 -2.2,-1.2l-25.5,17.3c-0.4,0.3 -0.6,0.7 -0.6,1.2l0,32.6c0,0.5 0.2,0.9 0.6,1.2l19.5,13.2c0.4,0.3 0.6,0.7 0.6,1.2l0,10.8c0,1.1 -1.2,1.8 -2.2,1.2l-29.8,-19.9c-0.4,-0.3 -0.6,-0.7 -0.6,-1.2l0,-45.3c0,-0.5 0.2,-0.9 0.6,-1.2l44.7,-29.9c0.5,-0.3 1.1,-0.3 1.5,0l4.6,3c0.4,0.3 0.6,0.7 0.6,1.2l0,13.2l0,0l0,70.1c0,1.1 1.2,1.8 2.2,1.2l25.1,-16.9c0.4,-0.3 0.6,-0.7 0.6,-1.2l0,-23.7c0,-1.1 -1.2,-1.8 -2.2,-1.2l-2.9,1.9l-6.2,4.1c-0.5,0.3 -1.1,0.3 -1.5,0l-2.8,-1.8l-4.2,-2.7c-0.4,-0.3 -0.7,-0.7 -0.7,-1.2l0,-10.7c0,-1.1 1.2,-1.8 2.2,-1.2l5.4,3.6c0.5,0.3 1.1,0.3 1.5,0l15.7,-10.4l1.1,-0.7c0.5,-0.3 1.1,-0.3 1.6,0l4.3,3z" fill="silver"/>
   </g>
  </symbol>
 </defs>
 <g class="layer">
  <title>Layer 1</title>
  <g id="svg_4"/>
  <use id="svg_5" transform="matrix(4.37384, 0, 0, 4.37343, -618.223, -1286.41)" x="0" xlink:href="#svg_2" y="0"/>
  <g id="svg_6"/>
 </g>
</svg>